<mxfile host="app.diagrams.net" modified="2021-07-18T15:42:26.673Z" agent="5.0 (X11; Linux x86_64) AppleWebKit/537.36 (KHTML, like Gecko) Chrome/91.0.4472.164 Safari/537.36" etag="PVxIItROQ7uJ1mEQOLlf" version="14.9.0" type="github">
  <diagram id="C5RBs43oDa-KdzZeNtuy" name="Page-1">
    <mxGraphModel dx="1327" dy="765" grid="1" gridSize="10" guides="1" tooltips="1" connect="1" arrows="1" fold="1" page="1" pageScale="1" pageWidth="827" pageHeight="1169" math="0" shadow="0">
      <root>
        <mxCell id="WIyWlLk6GJQsqaUBKTNV-0" />
        <mxCell id="WIyWlLk6GJQsqaUBKTNV-1" parent="WIyWlLk6GJQsqaUBKTNV-0" />
        <mxCell id="4h0Mdc-i61vkH9awHtuh-1" value="Mengambil Form Permintaan Surat PKL/Magang di USAC &lt;br&gt;Syarat: Mengambil Matakuliah Praktek Kerja Lapangan" style="rounded=0;whiteSpace=wrap;html=1;" vertex="1" parent="WIyWlLk6GJQsqaUBKTNV-1">
          <mxGeometry x="281" y="160" width="260" height="60" as="geometry" />
        </mxCell>
        <mxCell id="4h0Mdc-i61vkH9awHtuh-25" value="" style="edgeStyle=elbowEdgeStyle;rounded=0;orthogonalLoop=1;jettySize=auto;elbow=vertical;html=1;dashed=1;dashPattern=1 1;endArrow=classicThin;endFill=1;strokeColor=#000000;" edge="1" parent="WIyWlLk6GJQsqaUBKTNV-1" source="4h0Mdc-i61vkH9awHtuh-3" target="4h0Mdc-i61vkH9awHtuh-24">
          <mxGeometry relative="1" as="geometry" />
        </mxCell>
        <mxCell id="4h0Mdc-i61vkH9awHtuh-3" value="Mengisi &amp;amp; Mengapload Form Tersebut Ke USAC u/ Persetujuan PKL/Magang Dari Prodi" style="rounded=0;whiteSpace=wrap;html=1;" vertex="1" parent="WIyWlLk6GJQsqaUBKTNV-1">
          <mxGeometry x="281" y="270" width="260" height="60" as="geometry" />
        </mxCell>
        <mxCell id="4h0Mdc-i61vkH9awHtuh-6" value="" style="endArrow=classic;html=1;entryX=0.5;entryY=0;entryDx=0;entryDy=0;exitX=0.5;exitY=1;exitDx=0;exitDy=0;" edge="1" parent="WIyWlLk6GJQsqaUBKTNV-1" source="4h0Mdc-i61vkH9awHtuh-1" target="4h0Mdc-i61vkH9awHtuh-3">
          <mxGeometry width="50" height="50" relative="1" as="geometry">
            <mxPoint x="400" y="240" as="sourcePoint" />
            <mxPoint x="408" y="266" as="targetPoint" />
          </mxGeometry>
        </mxCell>
        <mxCell id="4h0Mdc-i61vkH9awHtuh-16" value="" style="edgeStyle=elbowEdgeStyle;rounded=0;orthogonalLoop=1;jettySize=auto;elbow=vertical;html=1;dashed=1;dashPattern=1 1;endArrow=open;endFill=0;strokeColor=#000000;" edge="1" parent="WIyWlLk6GJQsqaUBKTNV-1" source="4h0Mdc-i61vkH9awHtuh-9" target="4h0Mdc-i61vkH9awHtuh-3">
          <mxGeometry relative="1" as="geometry" />
        </mxCell>
        <object label="&lt;div style=&quot;text-align: left&quot;&gt;&lt;span&gt;&lt;b&gt;&lt;u&gt;Melampirkan:&lt;/u&gt;&lt;/b&gt;&lt;/span&gt;&lt;/div&gt;&lt;div style=&quot;text-align: left&quot;&gt;&lt;span&gt;- Daftar Nilai Keseluruhan&amp;nbsp; &amp;nbsp; &amp;nbsp; &amp;nbsp;Anggota Kelompok PKL&lt;/span&gt;&lt;br&gt;&lt;/div&gt;" id="4h0Mdc-i61vkH9awHtuh-9">
          <mxCell style="shape=document;whiteSpace=wrap;html=1;boundedLbl=1;" vertex="1" parent="WIyWlLk6GJQsqaUBKTNV-1">
            <mxGeometry x="600" y="265" width="180" height="70" as="geometry" />
          </mxCell>
        </object>
        <mxCell id="4h0Mdc-i61vkH9awHtuh-22" value="" style="edgeStyle=elbowEdgeStyle;rounded=0;orthogonalLoop=1;jettySize=auto;elbow=vertical;html=1;dashed=1;dashPattern=1 1;endArrow=classicThin;endFill=1;strokeColor=#000000;" edge="1" parent="WIyWlLk6GJQsqaUBKTNV-1" source="4h0Mdc-i61vkH9awHtuh-21" target="4h0Mdc-i61vkH9awHtuh-1">
          <mxGeometry relative="1" as="geometry" />
        </mxCell>
        <mxCell id="4h0Mdc-i61vkH9awHtuh-21" value="START" style="strokeWidth=2;html=1;shape=mxgraph.flowchart.terminator;whiteSpace=wrap;" vertex="1" parent="WIyWlLk6GJQsqaUBKTNV-1">
          <mxGeometry x="361" y="50" width="99" height="60" as="geometry" />
        </mxCell>
        <mxCell id="4h0Mdc-i61vkH9awHtuh-23" value="&lt;font style=&quot;font-size: 10px&quot;&gt;Persetujuan Magang Dari USAC Untuk Mangang Dari Rumah&lt;/font&gt;" style="strokeWidth=2;html=1;shape=mxgraph.flowchart.decision;whiteSpace=wrap;" vertex="1" parent="WIyWlLk6GJQsqaUBKTNV-1">
          <mxGeometry x="610" y="585" width="199" height="100" as="geometry" />
        </mxCell>
        <mxCell id="4h0Mdc-i61vkH9awHtuh-26" style="edgeStyle=elbowEdgeStyle;rounded=0;orthogonalLoop=1;jettySize=auto;elbow=vertical;html=1;exitX=0;exitY=0.5;exitDx=0;exitDy=0;entryX=0;entryY=0.5;entryDx=0;entryDy=0;dashed=1;dashPattern=1 1;endArrow=classicThin;endFill=1;strokeColor=#000000;" edge="1" parent="WIyWlLk6GJQsqaUBKTNV-1" source="4h0Mdc-i61vkH9awHtuh-24" target="4h0Mdc-i61vkH9awHtuh-1">
          <mxGeometry relative="1" as="geometry">
            <Array as="points">
              <mxPoint x="270" y="300" />
            </Array>
          </mxGeometry>
        </mxCell>
        <mxCell id="4h0Mdc-i61vkH9awHtuh-24" value="Form Yang Telah Di Setujui USAC Di Serhkan Kembali Kepada Mahasiswa Agar Dapat Melaksanakan Magang Dari Rumah" style="rounded=0;whiteSpace=wrap;html=1;" vertex="1" parent="WIyWlLk6GJQsqaUBKTNV-1">
          <mxGeometry x="281" y="380" width="260" height="60" as="geometry" />
        </mxCell>
        <mxCell id="4h0Mdc-i61vkH9awHtuh-27" value="Tidak Disetujui" style="text;html=1;strokeColor=none;fillColor=none;align=center;verticalAlign=middle;whiteSpace=wrap;rounded=0;" vertex="1" parent="WIyWlLk6GJQsqaUBKTNV-1">
          <mxGeometry x="220" y="210" width="40" height="20" as="geometry" />
        </mxCell>
      </root>
    </mxGraphModel>
  </diagram>
</mxfile>
